<?xml version="1.0" standalone="no"?>
<!DOCTYPE svg PUBLIC "-//W3C//DTD SVG 20010904//EN"
 "http://www.w3.org/TR/2001/REC-SVG-20010904/DTD/svg10.dtd">
<svg version="1.0" xmlns="http://www.w3.org/2000/svg"
 width="446.000000pt" height="81.000000pt" viewBox="0 0 446.000000 81.000000"
 preserveAspectRatio="xMidYMid meet">

<g transform="translate(0.000000,81.000000) scale(0.100000,-0.100000)"
fill="#000000" stroke="none">
<path d="M3581 800 c-49 -12 -112 -59 -147 -112 -89 -132 -92 -437 -5 -563 76
-112 278 -148 423 -74 86 44 113 114 67 173 -25 32 -79 35 -125 7 -72 -44
-155 -35 -189 21 -16 27 -20 51 -20 133 0 159 37 245 104 245 39 0 56 -31 65
-120 10 -86 26 -110 74 -110 21 0 47 7 59 15 52 36 56 164 8 261 -52 105 -179
156 -314 124z"/>
<path d="M789 791 c-113 -21 -178 -95 -143 -162 18 -35 61 -48 124 -38 25 4
73 8 107 8 66 1 93 -14 93 -51 0 -16 -4 -18 -17 -12 -10 5 -56 9 -103 9 -75 0
-91 -3 -131 -27 -94 -55 -136 -144 -127 -267 6 -80 33 -137 88 -184 78 -66
178 -73 257 -18 51 36 63 38 63 11 0 -59 107 -84 155 -36 33 33 38 80 33 333
-4 196 -7 224 -27 275 -24 62 -80 120 -138 144 -42 18 -172 26 -234 15z m173
-408 c38 -43 34 -114 -9 -157 -51 -51 -139 -28 -156 42 -8 32 10 89 35 112 29
26 108 28 130 3z"/>
<path d="M1957 780 c-27 -21 -42 -63 -72 -204 -50 -232 -68 -232 -112 -3 -28
149 -50 202 -88 211 -58 15 -83 -24 -109 -166 -20 -106 -53 -215 -67 -224 -20
-12 -30 13 -50 132 -38 228 -56 263 -136 264 -85 0 -99 -61 -67 -283 34 -235
88 -391 155 -452 100 -90 175 -10 234 250 6 27 11 19 39 -70 39 -119 54 -151
95 -189 26 -25 35 -28 76 -24 58 7 79 27 106 97 52 139 119 460 119 569 0 66
-11 87 -51 101 -42 14 -42 14 -72 -9z"/>
<path d="M2409 785 c-15 -8 -36 -29 -47 -46 l-20 -32 -18 29 c-25 42 -44 54
-79 54 -44 0 -71 -23 -92 -77 -16 -42 -18 -80 -18 -308 0 -246 1 -262 22 -307
38 -82 127 -103 160 -38 9 17 13 76 13 180 0 279 37 400 114 370 43 -16 49
-41 47 -219 -2 -235 14 -312 71 -354 38 -28 79 -10 104 46 17 37 19 68 19 277
0 253 -9 315 -57 375 -44 57 -159 83 -219 50z"/>
<path d="M2944 786 c-89 -29 -147 -101 -179 -226 -22 -83 -16 -281 10 -352 21
-60 92 -140 148 -167 129 -62 327 -19 376 82 24 49 26 69 10 100 -25 47 -58
48 -136 7 -89 -48 -179 -34 -202 30 -6 18 -11 36 -11 39 0 4 42 7 93 6 80 0
98 3 137 25 89 50 134 161 110 275 -10 50 -20 66 -64 110 -56 55 -102 75 -196
81 -30 2 -74 -2 -96 -10z m124 -167 c57 -20 66 -95 17 -145 -31 -31 -69 -31
-100 1 -42 41 -31 125 18 145 29 12 29 12 65 -1z"/>
<path d="M4100 783 c-34 -17 -35 -20 -38 -81 -3 -61 -4 -62 -39 -77 -45 -19
-62 -41 -63 -81 0 -39 17 -62 54 -72 l29 -8 1 -155 c1 -138 3 -158 23 -194 45
-83 116 -122 204 -112 122 15 189 93 189 222 0 63 -28 96 -83 98 -48 1 -64
-15 -72 -73 -8 -55 -28 -81 -48 -61 -14 14 -27 190 -18 246 l6 40 80 5 c80 5
80 5 97 40 22 44 12 90 -23 107 -13 7 -52 13 -86 13 l-63 0 0 49 c0 88 -73
133 -150 94z"/>
<path d="M115 777 c-39 -18 -79 -66 -97 -114 -18 -52 -19 -490 0 -550 21 -69
42 -88 101 -87 71 1 89 20 93 98 l3 61 81 5 c84 6 107 15 157 65 41 42 65 85
82 150 43 168 -4 313 -117 360 -58 24 -259 32 -303 12z m191 -165 c35 -23 47
-138 20 -190 -27 -52 -86 -83 -113 -60 -20 16 -18 207 3 236 15 22 66 30 90
14z"/>
</g>
</svg>
